<mxfile host="app.diagrams.net" modified="2022-07-20T08:09:50.924Z" agent="5.0 (Windows NT 10.0) AppleWebKit/537.36 (KHTML, like Gecko) Chrome/99.0.7113.93 Safari/537.36" etag="lpE_MF5l3lCuzNUwST8e" version="20.1.2" type="github">
  <diagram id="C5RBs43oDa-KdzZeNtuy" name="Page-1">
    <mxGraphModel dx="2047" dy="1109" grid="1" gridSize="10" guides="1" tooltips="1" connect="1" arrows="1" fold="1" page="1" pageScale="1" pageWidth="827" pageHeight="1169" math="0" shadow="0">
      <root>
        <mxCell id="WIyWlLk6GJQsqaUBKTNV-0" />
        <mxCell id="WIyWlLk6GJQsqaUBKTNV-1" parent="WIyWlLk6GJQsqaUBKTNV-0" />
        <object label="" id="74LfeLr-c_rW4B0bFqaF-14">
          <mxCell style="rounded=0;whiteSpace=wrap;html=1;" vertex="1" parent="WIyWlLk6GJQsqaUBKTNV-1">
            <mxGeometry x="300" y="50" width="990" height="550" as="geometry" />
          </mxCell>
        </object>
        <mxCell id="WIyWlLk6GJQsqaUBKTNV-3" value="&lt;div&gt;&lt;b&gt;Polkadot / Kusama&lt;/b&gt;&lt;/div&gt;&lt;div&gt;&lt;b&gt;Relay Chain&lt;br&gt;&lt;/b&gt;&lt;/div&gt;" style="rounded=1;whiteSpace=wrap;html=1;fontSize=12;glass=0;strokeWidth=1;shadow=0;" parent="WIyWlLk6GJQsqaUBKTNV-1" vertex="1">
          <mxGeometry x="10" y="40" width="130" height="60" as="geometry" />
        </mxCell>
        <mxCell id="74LfeLr-c_rW4B0bFqaF-1" value="&lt;div&gt;&lt;b&gt;FRAME-based&lt;/b&gt;&lt;/div&gt;&lt;div&gt;&lt;b&gt;Runtime&lt;br&gt;&lt;/b&gt;&lt;/div&gt;" style="rounded=1;whiteSpace=wrap;html=1;fontSize=12;glass=0;strokeWidth=1;shadow=0;" vertex="1" parent="WIyWlLk6GJQsqaUBKTNV-1">
          <mxGeometry x="330" y="70" width="140" height="70" as="geometry" />
        </mxCell>
        <mxCell id="74LfeLr-c_rW4B0bFqaF-2" value="" style="endArrow=none;html=1;rounded=0;entryX=0;entryY=0.5;entryDx=0;entryDy=0;endFill=0;exitX=1;exitY=0.5;exitDx=0;exitDy=0;" edge="1" parent="WIyWlLk6GJQsqaUBKTNV-1" source="WIyWlLk6GJQsqaUBKTNV-3" target="74LfeLr-c_rW4B0bFqaF-1">
          <mxGeometry relative="1" as="geometry">
            <mxPoint x="140" y="169.66" as="sourcePoint" />
            <mxPoint x="240" y="169.66" as="targetPoint" />
          </mxGeometry>
        </mxCell>
        <mxCell id="74LfeLr-c_rW4B0bFqaF-3" value="XCM" style="edgeLabel;resizable=0;html=1;align=center;verticalAlign=middle;" connectable="0" vertex="1" parent="74LfeLr-c_rW4B0bFqaF-2">
          <mxGeometry relative="1" as="geometry" />
        </mxCell>
        <mxCell id="74LfeLr-c_rW4B0bFqaF-4" value="&lt;div&gt;&lt;b&gt;CCTF Auditor Pool&lt;/b&gt;&lt;/div&gt;&lt;div&gt;&lt;b&gt;from&lt;/b&gt;&lt;/div&gt;&lt;div&gt;&lt;b&gt;EVM Smart Contract Storage&lt;br&gt;&lt;/b&gt;&lt;/div&gt;" style="rounded=1;whiteSpace=wrap;html=1;fontSize=12;glass=0;strokeWidth=1;shadow=0;" vertex="1" parent="WIyWlLk6GJQsqaUBKTNV-1">
          <mxGeometry x="-10" y="190" width="190" height="60" as="geometry" />
        </mxCell>
        <mxCell id="74LfeLr-c_rW4B0bFqaF-7" value="" style="endArrow=classic;html=1;rounded=0;exitX=1;exitY=0.5;exitDx=0;exitDy=0;" edge="1" parent="WIyWlLk6GJQsqaUBKTNV-1" source="74LfeLr-c_rW4B0bFqaF-4" target="74LfeLr-c_rW4B0bFqaF-12">
          <mxGeometry relative="1" as="geometry">
            <mxPoint x="355" y="240" as="sourcePoint" />
            <mxPoint x="455" y="240" as="targetPoint" />
          </mxGeometry>
        </mxCell>
        <mxCell id="74LfeLr-c_rW4B0bFqaF-8" value="API Read" style="edgeLabel;resizable=0;html=1;align=center;verticalAlign=middle;" connectable="0" vertex="1" parent="74LfeLr-c_rW4B0bFqaF-7">
          <mxGeometry relative="1" as="geometry">
            <mxPoint x="-25" as="offset" />
          </mxGeometry>
        </mxCell>
        <mxCell id="74LfeLr-c_rW4B0bFqaF-9" value="&lt;b&gt;QRUCIAL Verified Auditor Pool&lt;/b&gt;" style="rounded=1;whiteSpace=wrap;html=1;fontSize=12;glass=0;strokeWidth=1;shadow=0;" vertex="1" parent="WIyWlLk6GJQsqaUBKTNV-1">
          <mxGeometry x="-10" y="310" width="190" height="60" as="geometry" />
        </mxCell>
        <mxCell id="74LfeLr-c_rW4B0bFqaF-10" value="" style="endArrow=classic;html=1;rounded=0;exitX=1;exitY=0.5;exitDx=0;exitDy=0;entryX=0.5;entryY=1;entryDx=0;entryDy=0;" edge="1" parent="WIyWlLk6GJQsqaUBKTNV-1" source="74LfeLr-c_rW4B0bFqaF-9" target="74LfeLr-c_rW4B0bFqaF-12">
          <mxGeometry relative="1" as="geometry">
            <mxPoint x="145.0000000000001" y="250" as="sourcePoint" />
            <mxPoint x="310" y="150" as="targetPoint" />
          </mxGeometry>
        </mxCell>
        <mxCell id="74LfeLr-c_rW4B0bFqaF-11" value="API Read" style="edgeLabel;resizable=0;html=1;align=center;verticalAlign=middle;" connectable="0" vertex="1" parent="74LfeLr-c_rW4B0bFqaF-10">
          <mxGeometry relative="1" as="geometry">
            <mxPoint x="-50" y="20" as="offset" />
          </mxGeometry>
        </mxCell>
        <mxCell id="74LfeLr-c_rW4B0bFqaF-12" value="&lt;div&gt;&lt;b&gt;AuditorRep&lt;/b&gt;&lt;/div&gt;&lt;div&gt;&lt;b&gt;Pallet&lt;br&gt;&lt;/b&gt;&lt;/div&gt;" style="rounded=1;whiteSpace=wrap;html=1;fontSize=12;glass=0;strokeWidth=1;shadow=0;" vertex="1" parent="WIyWlLk6GJQsqaUBKTNV-1">
          <mxGeometry x="320" y="200" width="140" height="70" as="geometry" />
        </mxCell>
        <mxCell id="74LfeLr-c_rW4B0bFqaF-15" value="&lt;div&gt;&lt;b&gt;ExoSys&lt;/b&gt;&lt;/div&gt;&lt;div&gt;&lt;b&gt;Pallet&lt;br&gt;&lt;/b&gt;&lt;/div&gt;" style="rounded=1;whiteSpace=wrap;html=1;fontSize=12;glass=0;strokeWidth=1;shadow=0;" vertex="1" parent="WIyWlLk6GJQsqaUBKTNV-1">
          <mxGeometry x="530" y="160" width="140" height="70" as="geometry" />
        </mxCell>
        <mxCell id="74LfeLr-c_rW4B0bFqaF-16" value="&lt;div&gt;&lt;b&gt;ExoSys&lt;/b&gt;&lt;/div&gt;&lt;div&gt;&lt;b&gt;Daemon&lt;br&gt;&lt;/b&gt;&lt;/div&gt;" style="rounded=1;whiteSpace=wrap;html=1;fontSize=12;glass=0;strokeWidth=1;shadow=0;" vertex="1" parent="WIyWlLk6GJQsqaUBKTNV-1">
          <mxGeometry x="720" y="160" width="140" height="70" as="geometry" />
        </mxCell>
        <mxCell id="74LfeLr-c_rW4B0bFqaF-36" style="edgeStyle=orthogonalEdgeStyle;rounded=0;orthogonalLoop=1;jettySize=auto;html=1;exitX=1;exitY=0.5;exitDx=0;exitDy=0;entryX=-0.008;entryY=0.076;entryDx=0;entryDy=0;entryPerimeter=0;startArrow=none;startFill=0;endArrow=none;endFill=0;" edge="1" parent="WIyWlLk6GJQsqaUBKTNV-1" source="74LfeLr-c_rW4B0bFqaF-17" target="74LfeLr-c_rW4B0bFqaF-22">
          <mxGeometry relative="1" as="geometry" />
        </mxCell>
        <mxCell id="74LfeLr-c_rW4B0bFqaF-17" value="&lt;div&gt;&lt;b&gt;ExoTool&lt;/b&gt;&lt;/div&gt;&lt;div&gt;- Containers&lt;/div&gt;&lt;div&gt;- Prep scripts&lt;br&gt;&lt;/div&gt;&lt;div&gt;- Executor scripts&lt;br&gt;&lt;/div&gt;" style="rounded=1;whiteSpace=wrap;html=1;fontSize=12;glass=0;strokeWidth=1;shadow=0;" vertex="1" parent="WIyWlLk6GJQsqaUBKTNV-1">
          <mxGeometry x="320" y="330" width="140" height="70" as="geometry" />
        </mxCell>
        <mxCell id="74LfeLr-c_rW4B0bFqaF-20" value="" style="rounded=0;whiteSpace=wrap;html=1;" vertex="1" parent="WIyWlLk6GJQsqaUBKTNV-1">
          <mxGeometry x="503.5" y="340" width="573" height="240" as="geometry" />
        </mxCell>
        <mxCell id="74LfeLr-c_rW4B0bFqaF-18" value="&lt;div&gt;&lt;b&gt;Report Storage&lt;/b&gt;&lt;/div&gt;&lt;div&gt;&lt;b&gt;Filesystem&lt;br&gt;&lt;/b&gt;&lt;/div&gt;" style="rounded=1;whiteSpace=wrap;html=1;fontSize=12;glass=0;strokeWidth=1;shadow=0;" vertex="1" parent="WIyWlLk6GJQsqaUBKTNV-1">
          <mxGeometry x="516.5" y="430" width="90" height="80" as="geometry" />
        </mxCell>
        <mxCell id="74LfeLr-c_rW4B0bFqaF-22" value="Folder Structure" style="swimlane;fontStyle=0;childLayout=stackLayout;horizontal=1;startSize=30;horizontalStack=0;resizeParent=1;resizeParentMax=0;resizeLast=0;collapsible=1;marginBottom=0;" vertex="1" parent="WIyWlLk6GJQsqaUBKTNV-1">
          <mxGeometry x="616.5" y="350" width="440" height="210" as="geometry">
            <mxRectangle x="650" y="330" width="180" height="30" as="alternateBounds" />
          </mxGeometry>
        </mxCell>
        <mxCell id="74LfeLr-c_rW4B0bFqaF-23" value="&lt;block_height&gt;_&lt;AuditName&gt;" style="text;strokeColor=none;fillColor=none;align=left;verticalAlign=middle;spacingLeft=4;spacingRight=4;overflow=hidden;points=[[0,0.5],[1,0.5]];portConstraint=eastwest;rotatable=0;" vertex="1" parent="74LfeLr-c_rW4B0bFqaF-22">
          <mxGeometry y="30" width="440" height="30" as="geometry" />
        </mxCell>
        <mxCell id="74LfeLr-c_rW4B0bFqaF-24" value="        SharedFS (for Docker to attach it)" style="text;strokeColor=none;fillColor=none;align=left;verticalAlign=middle;spacingLeft=4;spacingRight=4;overflow=hidden;points=[[0,0.5],[1,0.5]];portConstraint=eastwest;rotatable=0;" vertex="1" parent="74LfeLr-c_rW4B0bFqaF-22">
          <mxGeometry y="60" width="440" height="30" as="geometry" />
        </mxCell>
        <mxCell id="74LfeLr-c_rW4B0bFqaF-34" value="                CargoAudit (files that will be run by cargo --audit)" style="text;strokeColor=none;fillColor=none;align=left;verticalAlign=middle;spacingLeft=4;spacingRight=4;overflow=hidden;points=[[0,0.5],[1,0.5]];portConstraint=eastwest;rotatable=0;" vertex="1" parent="74LfeLr-c_rW4B0bFqaF-22">
          <mxGeometry y="90" width="440" height="30" as="geometry" />
        </mxCell>
        <mxCell id="74LfeLr-c_rW4B0bFqaF-35" value="                NewFolderExample (new folder for each newly added tool)" style="text;strokeColor=none;fillColor=none;align=left;verticalAlign=middle;spacingLeft=4;spacingRight=4;overflow=hidden;points=[[0,0.5],[1,0.5]];portConstraint=eastwest;rotatable=0;" vertex="1" parent="74LfeLr-c_rW4B0bFqaF-22">
          <mxGeometry y="120" width="440" height="30" as="geometry" />
        </mxCell>
        <mxCell id="74LfeLr-c_rW4B0bFqaF-28" value="                AuditLogStore (for json output and to keep logs of all audits)" style="text;strokeColor=none;fillColor=none;align=left;verticalAlign=middle;spacingLeft=4;spacingRight=4;overflow=hidden;points=[[0,0.5],[1,0.5]];portConstraint=eastwest;rotatable=0;" vertex="1" parent="74LfeLr-c_rW4B0bFqaF-22">
          <mxGeometry y="150" width="440" height="30" as="geometry" />
        </mxCell>
        <mxCell id="74LfeLr-c_rW4B0bFqaF-29" value="        FinalReport (final json outputs of all tools and the report generated + Enc)" style="text;strokeColor=none;fillColor=none;align=left;verticalAlign=middle;spacingLeft=4;spacingRight=4;overflow=hidden;points=[[0,0.5],[1,0.5]];portConstraint=eastwest;rotatable=0;" vertex="1" parent="74LfeLr-c_rW4B0bFqaF-22">
          <mxGeometry y="180" width="440" height="30" as="geometry" />
        </mxCell>
        <mxCell id="74LfeLr-c_rW4B0bFqaF-32" style="edgeStyle=orthogonalEdgeStyle;rounded=0;orthogonalLoop=1;jettySize=auto;html=1;exitX=0;exitY=0.5;exitDx=0;exitDy=0;startArrow=classic;startFill=1;endArrow=none;endFill=0;" edge="1" parent="WIyWlLk6GJQsqaUBKTNV-1" source="74LfeLr-c_rW4B0bFqaF-31" target="74LfeLr-c_rW4B0bFqaF-29">
          <mxGeometry relative="1" as="geometry" />
        </mxCell>
        <mxCell id="74LfeLr-c_rW4B0bFqaF-31" value="&lt;b&gt;Public HTTP API&lt;/b&gt;" style="rounded=1;whiteSpace=wrap;html=1;fontSize=12;glass=0;strokeWidth=1;shadow=0;" vertex="1" parent="WIyWlLk6GJQsqaUBKTNV-1">
          <mxGeometry x="1140" y="525" width="130" height="40" as="geometry" />
        </mxCell>
      </root>
    </mxGraphModel>
  </diagram>
</mxfile>
